<svg width="24" height="24" viewBox="0 0 24 24" fill="none" xmlns="http://www.w3.org/2000/svg">
<path d="M6 14H6.675C7.256 14 7.547 14 7.779 14.134C7.83751 14.1677 7.89246 14.2072 7.943 14.252C8.143 14.43 8.235 14.705 8.419 15.257L8.544 15.633C8.764 16.293 8.874 16.623 9.136 16.811C9.398 17 9.746 17 10.442 17H13.559C14.254 17 14.602 17 14.864 16.811C15.126 16.622 15.236 16.293 15.456 15.633L15.581 15.257C15.765 14.705 15.857 14.43 16.057 14.252C16.1075 14.2072 16.1625 14.1677 16.221 14.134C16.453 14 16.744 14 17.325 14H18C18.932 14 19.398 14 19.765 13.848C20.0078 13.7475 20.2284 13.6001 20.4143 13.4143C20.6001 13.2284 20.7475 13.0078 20.848 12.765C21 12.398 21 11.932 21 11V17C21 18.886 21 19.828 20.414 20.414C19.828 21 18.886 21 17 21H7C5.114 21 4.172 21 3.586 20.414C3 19.828 3 18.886 3 17V11C3 11.932 3 12.398 3.152 12.765C3.25251 13.0078 3.3999 13.2284 3.58572 13.4143C3.77155 13.6001 3.99218 13.7475 4.235 13.848C4.602 14 5.068 14 6 14Z" fill="#2F5FA7" fill-opacity="0.25"/>
<path d="M3 11C3 11.932 3 12.398 3.152 12.765C3.25251 13.0078 3.3999 13.2284 3.58572 13.4143C3.77155 13.6001 3.99218 13.7475 4.235 13.848C4.602 14 5.068 14 6 14H6.675C7.256 14 7.547 14 7.779 14.134C7.83751 14.1677 7.89246 14.2072 7.943 14.252C8.143 14.43 8.235 14.705 8.419 15.257L8.544 15.633C8.764 16.293 8.874 16.623 9.136 16.811C9.398 17 9.746 17 10.442 17H13.559C14.254 17 14.602 17 14.864 16.811C15.126 16.622 15.236 16.293 15.456 15.633L15.581 15.257C15.765 14.705 15.857 14.43 16.057 14.252C16.1075 14.2072 16.1625 14.1677 16.221 14.134C16.453 14 16.744 14 17.325 14H18C18.932 14 19.398 14 19.765 13.848C20.0078 13.7475 20.2284 13.6001 20.4143 13.4143C20.6001 13.2284 20.7475 13.0078 20.848 12.765C21 12.398 21 11.932 21 11M16 9L12 12L8 9M12 12V2" stroke="#1B2D5A" stroke-width="2.4"/>
<path d="M16 5H17C18.886 5 19.828 5 20.414 5.586C21 6.172 21 7.114 21 9V17C21 18.886 21 19.828 20.414 20.414C19.828 21 18.886 21 17 21H7C5.114 21 4.172 21 3.586 20.414C3 19.828 3 18.886 3 17V9C3 7.114 3 6.172 3.586 5.586C4.172 5 5.114 5 7 5H8" stroke="#1B2D5A" stroke-width="2.4"/>
</svg>
